HIERARCHY
ROOT hip
{
  OFFSET 0 0 0
  CHANNELS 6 Xposition Yposition Zposition Zrotation Yrotation Xrotation
  JOINT abdomen
  {
    OFFSET 0 20.6881 -0.73152
    CHANNELS 3 Zrotation Xrotation Yrotation
    JOINT chest
    {
      OFFSET 0 11.7043 -0.48768
      CHANNELS 3 Zrotation Xrotation Yrotation
      JOINT neck
      {
        OFFSET 0 22.1894 -2.19456
        CHANNELS 3 Zrotation Xrotation Yrotation
        JOINT head
        {
          OFFSET -0.24384 7.07133 1.2192
          CHANNELS 3 Zrotation Xrotation Yrotation
          JOINT leftEye
          {
            OFFSET 4.14528 8.04674 8.04672
            CHANNELS 3 Zrotation Xrotation Yrotation
            End Site
            {
              OFFSET 1 0 0
            }
          }
          JOINT rightEye
          {
            OFFSET -3.6576 8.04674 8.04672
            CHANNELS 3 Zrotation Xrotation Yrotation
            End Site
            {
              OFFSET 1 0 0
            }
          }
        }
      }
      JOINT rCollar
      {
        OFFSET -2.68224 19.2634 -4.8768
        CHANNELS 3 Zrotation Xrotation Yrotation
        JOINT rShldr
        {
          OFFSET -8.77824 -1.95073 1.46304
          CHANNELS 3 Zrotation Xrotation Yrotation
          JOINT rForeArm
          {
            OFFSET -28.1742 -1.7115 0.48768
            CHANNELS 3 Zrotation Xrotation Yrotation
            JOINT rHand
            {
              OFFSET -22.5879 0.773209 7.07136
              CHANNELS 3 Zrotation Xrotation Yrotation
              JOINT rThumb1
              {
                OFFSET -1.2192 -0.487915 3.41376
                CHANNELS 3 Zrotation Xrotation Yrotation
                JOINT rThumb2
                {
                  OFFSET -3.37035 -0.52449 3.41376
                  CHANNELS 3 Zrotation Xrotation Yrotation
                  End Site
                  {
                    OFFSET -1.78271 -1.18214 1.43049
                  }
                }
              }
              JOINT rIndex1
              {
                OFFSET -7.75947 0.938293 5.60832
                CHANNELS 3 Zrotation Xrotation Yrotation
                JOINT rIndex2
                {
                  OFFSET -2.54057 -0.884171 1.56538
                  CHANNELS 3 Zrotation Xrotation Yrotation
                  End Site
                  {
                    OFFSET -1.62519 -0.234802 1.16502
                  }
                }
              }
              JOINT rMid1
              {
                OFFSET -8.24714 1.18213 3.41376
                CHANNELS 3 Zrotation Xrotation Yrotation
                JOINT rMid2
                {
                  OFFSET -3.10165 -0.590103 1.0647
                  CHANNELS 3 Zrotation Xrotation Yrotation
                  End Site
                  {
                    OFFSET -2.48547 -0.328903 0.83742
                  }
                }
              }
              JOINT rRing1
              {
                OFFSET -8.82822 0.546677 1.51678
                CHANNELS 3 Zrotation Xrotation Yrotation
                JOINT rRing2
                {
                  OFFSET -2.60934 -0.819778 -0.0198488
                  CHANNELS 3 Zrotation Xrotation Yrotation
                  End Site
                  {
                    OFFSET -2.33842 -0.294052 0.168128
                  }
                }
              }
              JOINT rPinky1
              {
                OFFSET -8.27202 -0.0477905 -0.4584
                CHANNELS 3 Zrotation Xrotation Yrotation
                JOINT rPinky2
                {
                  OFFSET -1.82734 -0.647385 -0.700984
                  CHANNELS 3 Zrotation Xrotation Yrotation
                  End Site
                  {
                    OFFSET -1.69225 -0.51767 -0.607171
                  }
                }
              }
            }
          }
        }
      }
      JOINT lCollar
      {
        OFFSET 2.68224 19.2634 -4.8768
        CHANNELS 3 Zrotation Xrotation Yrotation
        JOINT lShldr
        {
          OFFSET 8.77824 -1.95073 1.46304
          CHANNELS 3 Zrotation Xrotation Yrotation
          JOINT lForeArm
          {
            OFFSET 28.1742 -1.7115 0.48768
            CHANNELS 3 Zrotation Xrotation Yrotation
            JOINT lHand
            {
              OFFSET 22.5879 0.773209 7.07136
              CHANNELS 3 Zrotation Xrotation Yrotation
              JOINT lThumb1
              {
                OFFSET 1.2192 -0.487915 3.41376
                CHANNELS 3 Zrotation Xrotation Yrotation
                JOINT lThumb2
                {
                  OFFSET 3.37035 -0.52449 3.41376
                  CHANNELS 3 Zrotation Xrotation Yrotation
                  End Site
                  {
                    OFFSET 1.78271 -1.18214 1.43049
                  }
                }
              }
              JOINT lIndex1
              {
                OFFSET 7.75947 0.938293 5.60832
                CHANNELS 3 Zrotation Xrotation Yrotation
                JOINT lIndex2
                {
                  OFFSET 2.54057 -0.884171 1.56538
                  CHANNELS 3 Zrotation Xrotation Yrotation
                  End Site
                  {
                    OFFSET 1.62519 -0.234802 1.16502
                  }
                }
              }
              JOINT lMid1
              {
                OFFSET 8.24714 1.18213 3.41376
                CHANNELS 3 Zrotation Xrotation Yrotation
                JOINT lMid2
                {
                  OFFSET 3.10165 -0.590103 1.0647
                  CHANNELS 3 Zrotation Xrotation Yrotation
                  End Site
                  {
                    OFFSET 2.48547 -0.328903 0.83742
                  }
                }
              }
              JOINT lRing1
              {
                OFFSET 8.82822 0.546677 1.51678
                CHANNELS 3 Zrotation Xrotation Yrotation
                JOINT lRing2
                {
                  OFFSET 2.60934 -0.819778 -0.0198488
                  CHANNELS 3 Zrotation Xrotation Yrotation
                  End Site
                  {
                    OFFSET 2.33842 -0.294052 0.168128
                  }
                }
              }
              JOINT lPinky1
              {
                OFFSET 8.27202 -0.0477905 -0.4584
                CHANNELS 3 Zrotation Xrotation Yrotation
                JOINT lPinky2
                {
                  OFFSET 1.82734 -0.647385 -0.700984
                  CHANNELS 3 Zrotation Xrotation Yrotation
                  End Site
                  {
                    OFFSET 1.69225 -0.51767 -0.607171
                  }
                }
              }
            }
          }
        }
      }
    }
  }
  JOINT rButtock
  {
    OFFSET -8.77824 4.35084 1.2192
    CHANNELS 3 Zrotation Xrotation Yrotation
    JOINT rThigh
    {
      OFFSET 0 -1.70687 -2.19456
      CHANNELS 3 Zrotation Xrotation Yrotation
      JOINT rShin
      {
        OFFSET 0 -36.8199 0.73152
        CHANNELS 3 Zrotation Xrotation Yrotation
        JOINT rFoot
        {
          OFFSET 0.73152 -45.1104 -5.12064
          CHANNELS 3 Zrotation Xrotation Yrotation
          End Site
          {
            OFFSET -1.1221 -3.69964 12.103
          }
        }
      }
    }
  }
  JOINT lButtock
  {
    OFFSET 8.77824 4.35084 1.2192
    CHANNELS 3 Zrotation Xrotation Yrotation
    JOINT lThigh
    {
      OFFSET 0 -1.70687 -2.19456
      CHANNELS 3 Zrotation Xrotation Yrotation
      JOINT lShin
      {
        OFFSET 0 -36.8199 0.73152
        CHANNELS 3 Zrotation Xrotation Yrotation
        JOINT lFoot
        {
          OFFSET -0.73152 -45.1104 -5.12064
          CHANNELS 3 Zrotation Xrotation Yrotation
          End Site
          {
            OFFSET 1.1221 -3.69964 12.103
          }
        }
      }
    }
  }
}
MOTION
Frames:	7
Frame Time:	0.00833333
-94.8676 70.7046 -39.5754 -19.1974 87.6468 25.2408 -12.3684 44.3109 3.15055 -0.364292 -15.1824 0.0977124 -1.36548 6.70934 1.52385 14.6519 -34.3826 8.50089 -0.0 0.0 0.0 -0.0 0.0 0.0 -1.86656e-13 3.74623e-12 2.27981e-13 26.7508 -11.6114 88.9155 -11.8468 -5.34165 21.3138 -0.525026 20.1442 2.95512 -2.88587e-09 -6.25586e-10 -2.99481e-09 -5.03667e-09 -1.06003e-09 -5.12454e-09 -2.88587e-09 -6.25585e-10 -2.99482e-09 7.73091 5.47488 0.417314 -2.88587e-09 -6.25586e-10 -2.99481e-09 2.90554 0.965183 0.102902 -2.88586e-09 -6.25585e-10 -2.99481e-09 10.2786 0.731801 0.0259123 -2.88588e-09 -6.25585e-10 -2.99481e-09 2.22167 -0.733487 -0.20892 -1.86673e-13 3.74622e-12 2.27779e-13 -30.308 -20.3581 -89.5635 7.07545 -2.54491 -12.42 3.09146 43.6726 -7.70933 4.10761e-09 -1.44028e-10 4.81147e-11 7.08187e-09 -2.45714e-10 -5.76776e-11 4.10761e-09 -1.44026e-10 4.81258e-11 -7.73091 5.47488 -0.417314 4.10762e-09 -1.44026e-10 4.81182e-11 -2.90554 0.965183 -0.102902 4.10761e-09 -1.44026e-10 4.81219e-11 -10.2786 0.731801 -0.0259123 4.10762e-09 -1.44023e-10 4.81176e-11 -2.22167 -0.733487 0.20892 -2.03217e-16 0.0 -3.88251e-19 0.612603 -47.5496 -5.42321 -0.620396 51.6409 1.28978 -22.7241 -35.6181 -31.3314 2.03217e-16 0.0 3.88251e-19 165.318 -80.1815 161.194 7.55523 82.6455 -7.66386 0.313184 -26.6008 0.41469
-94.376 70.7407 -39.6566 -23.0227 87.7487 21.321 -12.0437 44.3449 2.93537 -0.41278 -14.946 0.0736711 -1.38297 6.67035 1.49281 14.774 -34.3109 8.46992 -0.0 0.0 0.0 -0.0 0.0 0.0 -2.85843e-13 4.97301e-12 2.81524e-13 26.9409 -11.8132 89.0106 -11.8238 -5.32575 21.2694 -0.527012 20.1804 2.9609 -2.94384e-09 -8.61039e-10 -3.70764e-09 -5.14952e-09 -1.46363e-09 -6.35487e-09 -2.94384e-09 -8.61037e-10 -3.70765e-09 7.73091 5.47488 0.417314 -2.94384e-09 -8.61039e-10 -3.70765e-09 2.90554 0.965183 0.102902 -2.94383e-09 -8.61038e-10 -3.70765e-09 10.2786 0.731801 0.0259123 -2.94385e-09 -8.61038e-10 -3.70765e-09 2.22167 -0.733487 -0.20892 -2.8583e-13 4.97299e-12 2.81356e-13 -31.0951 -20.503 -89.979 7.02226 -2.51908 -12.3239 3.24391 44.466 -7.92792 4.63846e-09 -1.88853e-10 -1.64448e-10 7.98938e-09 -3.27927e-10 -4.4369e-10 4.63846e-09 -1.88849e-10 -1.6444e-10 -7.73091 5.47488 -0.417314 4.63846e-09 -1.88849e-10 -1.64443e-10 -2.90554 0.965183 -0.102902 4.63846e-09 -1.8885e-10 -1.6444e-10 -10.2786 0.731801 -0.0259123 4.63846e-09 -1.88847e-10 -1.64444e-10 -2.22167 -0.733487 0.20892 -2.03217e-16 0.0 -3.88251e-19 0.537351 -46.8706 -5.45495 -0.602531 51.1509 1.2721 -22.7247 -36.1136 -31.1339 2.03217e-16 0.0 3.88251e-19 167.463 -79.5734 162.879 6.57598 81.6719 -6.64883 0.170299 -26.5854 0.23126
-93.8626 70.7514 -39.7316 -30.7261 87.8672 13.4248 -11.8037 44.3868 2.78086 -0.439868 -14.7639 0.0581033 -1.37763 6.63541 1.47981 14.8558 -34.1994 8.4519 -0.0 0.0 0.0 -0.0 0.0 0.0 -3.21267e-13 5.35194e-12 2.94649e-13 27.068 -11.9762 89.0957 -11.8006 -5.30972 21.2246 -0.527541 20.1901 2.96245 -2.79478e-09 -8.6673e-10 -3.89002e-09 -4.89539e-09 -1.4728e-09 -6.67235e-09 -2.79478e-09 -8.66729e-10 -3.89003e-09 7.73091 5.47488 0.417314 -2.79479e-09 -8.66731e-10 -3.89003e-09 2.90554 0.965183 0.102902 -2.79477e-09 -8.6673e-10 -3.89003e-09 10.2786 0.731801 0.0259123 -2.79479e-09 -8.66731e-10 -3.89003e-09 2.22167 -0.733487 -0.20892 -3.21226e-13 5.35192e-12 2.94499e-13 -31.7317 -20.6328 -90.3301 6.9624 -2.49019 -12.2156 3.37934 45.1402 -8.11905 4.62105e-09 -1.97603e-10 -2.84567e-10 7.9552e-09 -3.44591e-10 -6.50985e-10 4.62105e-09 -1.97598e-10 -2.84561e-10 -7.73091 5.47488 -0.417314 4.62105e-09 -1.97599e-10 -2.84561e-10 -2.90554 0.965183 -0.102902 4.62105e-09 -1.976e-10 -2.84559e-10 -10.2786 0.731801 -0.0259123 4.62105e-09 -1.97597e-10 -2.84564e-10 -2.22167 -0.733487 0.20892 -2.03217e-16 0.0 -3.88251e-19 0.556422 -46.2297 -5.37175 -0.586385 50.6963 1.25672 -22.8218 -36.3663 -31.1619 2.03217e-16 0.0 3.88251e-19 169.055 -78.9446 164.028 5.88432 80.8056 -5.92426 0.109327 -26.5624 0.180715
-93.4958 69.9678 -39.9135 -34.1326 87.9324 9.9914 -11.705 44.4663 2.726 -0.446031 -14.6703 0.0543311 -1.32788 6.60622 1.4903 14.8801 -34.0323 8.44617 -0.0 0.0 0.0 -0.0 0.0 0.0 -2.51296e-13 4.32927e-12 2.40727e-13 27.1133 -12.0847 89.1571 -11.7737 -5.29115 21.1727 -0.52688 20.1777 2.96047 -2.29938e-09 -4.6745e-10 -3.19295e-09 -4.0275e-09 -7.86405e-10 -5.47645e-09 -2.29938e-09 -4.6745e-10 -3.19296e-09 7.73091 5.47488 0.417314 -2.29939e-09 -4.67451e-10 -3.19296e-09 2.90554 0.965183 0.102902 -2.29937e-09 -4.6745e-10 -3.19296e-09 10.2786 0.731801 0.0259123 -2.29939e-09 -4.6745e-10 -3.19296e-09 2.22167 -0.733487 -0.20892 -2.51223e-13 4.32925e-12 2.40573e-13 -32.1127 -20.746 -90.581 6.89422 -2.45746 -12.0925 3.4771 45.6113 -8.25553 3.67472e-09 -1.43087e-10 -2.47325e-10 6.32571e-09 -2.45984e-10 -5.5428e-10 3.67473e-09 -1.43083e-10 -2.47317e-10 -7.73091 5.47488 -0.417314 3.67473e-09 -1.43084e-10 -2.47319e-10 -2.90554 0.965183 -0.102902 3.67472e-09 -1.43084e-10 -2.47318e-10 -10.2786 0.731801 -0.0259123 3.67473e-09 -1.43082e-10 -2.47324e-10 -2.22167 -0.733487 0.20892 -2.03217e-16 0.0 -3.88251e-19 0.68857 -45.642 -5.12843 -0.573094 50.3158 1.24528 -23.0773 -36.2682 -31.5326 2.03217e-16 0.0 3.88251e-19 170.073 -78.2822 164.62 5.41748 80.1065 -5.42859 0.152999 -26.5388 0.300849
-92.9964 69.9594 -40.0077 -35.6634 87.8406 8.4558 -11.6782 44.561 2.72118 -0.440418 -14.631 0.0563796 -1.24928 6.57892 1.51516 14.8716 -33.8214 8.447 -0.0 0.0 0.0 -0.0 0.0 0.0 -1.13068e-13 2.38057e-12 1.41584e-13 27.0981 -12.1586 89.197 -11.7462 -5.27224 21.1198 -0.525135 20.1453 2.95531 -1.54964e-09 2.06725e-10 -1.91237e-09 -2.71001e-09 3.72165e-10 -3.27683e-09 -1.54964e-09 2.06723e-10 -1.91238e-09 7.73091 5.47488 0.417314 -1.54964e-09 2.06723e-10 -1.91237e-09 2.90554 0.965183 0.102902 -1.54963e-09 2.06724e-10 -1.91237e-09 10.2786 0.731801 0.0259123 -1.54965e-09 2.06726e-10 -1.91237e-09 2.22167 -0.733487 -0.20892 -1.12957e-13 2.38053e-12 1.41414e-13 -32.3484 -20.8477 -90.7725 6.81876 -2.42137 -11.9564 3.55254 45.9684 -8.36037 2.09064e-09 -4.656e-11 -1.12319e-10 3.60063e-09 -7.09172e-11 -2.66613e-10 2.09064e-09 -4.65575e-11 -1.12307e-10 -7.73091 5.47488 -0.417314 2.09064e-09 -4.65593e-11 -1.12314e-10 -2.90554 0.965183 -0.102902 2.09064e-09 -4.65592e-11 -1.12314e-10 -10.2786 0.731801 -0.0259123 2.09064e-09 -4.65582e-11 -1.12321e-10 -2.22167 -0.733487 0.20892 -2.03217e-16 0.0 -3.88251e-19 0.886346 -45.1003 -4.79308 -0.561953 50.0007 1.23755 -23.4426 -35.9655 -32.1253 2.03217e-16 0.0 3.88251e-19 170.761 -77.6015 164.898 5.07564 79.5234 -5.0609 0.292396 -26.5025 0.576737
-92.4898 69.9877 -40.1579 -36.3989 87.8124 7.6897 -11.6482 44.6215 2.71623 -0.415462 -14.5948 0.0611586 -1.17863 6.55259 1.54897 14.8504 -33.5936 8.46016 -0.0 0.0 0.0 -0.0 0.0 0.0 2.76031e-14 3.95094e-13 4.07648e-14 27.0476 -12.2193 89.2394 -11.7238 -5.25678 21.0765 -0.521637 20.0814 2.94512 -7.9002e-10 8.59128e-10 -6.11542e-10 -1.37504e-09 1.4929e-09 -1.04247e-09 -7.90019e-10 8.59125e-10 -6.11554e-10 7.73091 5.47488 0.417314 -7.9002e-10 8.59126e-10 -6.11543e-10 2.90554 0.965183 0.102902 -7.90015e-10 8.59127e-10 -6.11543e-10 10.2786 0.731801 0.0259123 -7.90026e-10 8.5913e-10 -6.11539e-10 2.22167 -0.733487 -0.20892 2.77356e-14 3.95058e-13 4.0575e-14 -32.5898 -20.9477 -90.9481 6.73879 -2.38332 -11.8122 3.63021 46.3345 -8.4684 5.06912e-10 4.6739e-11 1.90823e-11 8.75829e-10 9.78417e-11 1.49103e-11 5.06909e-10 4.67396e-11 1.9099e-11 -7.73091 5.47488 -0.417314 5.06912e-10 4.67371e-11 1.90867e-11 -2.90554 0.965183 -0.102902 5.06902e-10 4.67377e-11 1.90855e-11 -10.2786 0.731801 -0.0259123 5.06912e-10 4.67378e-11 1.90761e-11 -2.22167 -0.733487 0.20892 -2.03217e-16 0.0 -3.88251e-19 1.12572 -44.5739 -4.42825 -0.550461 49.6702 1.22955 -23.8128 -35.587 -32.7608 2.03217e-16 0.0 3.88251e-19 171.26 -76.9343 165.003 4.77955 78.9629 -4.74026 0.481985 -26.4463 0.934051
-91.9725 70.0141 -40.2554 -44.3092 87.9441 -0.3103 -11.5399 44.5982 2.66083 -0.363595 -14.5109 0.0655783 -1.15274 6.52632 1.58628 14.8362 -33.3757 8.4913 -0.0 0.0 0.0 -0.0 0.0 0.0 1.04903e-13 -7.3787e-13 -1.81888e-14 26.9875 -12.288 89.3092 -11.7118 -5.24858 21.0535 -0.515748 19.9748 2.9281 -2.64999e-10 1.1931e-09 1.46251e-10 -4.54714e-10 2.06578e-09 2.57692e-10 -2.64998e-10 1.19309e-09 1.46239e-10 7.73091 5.47488 0.417314 -2.64999e-10 1.19309e-09 1.46251e-10 2.90554 0.965183 0.102902 -2.64996e-10 1.19309e-09 1.46253e-10 10.2786 0.731801 0.0259123 -2.65005e-10 1.1931e-09 1.46258e-10 2.22167 -0.733487 -0.20892 1.05021e-13 -7.37906e-13 -1.83876e-14 -32.9886 -21.0546 -91.1524 6.65707 -2.34473 -11.665 3.73748 46.832 -8.61698 -4.38355e-10 9.15713e-11 4.55106e-11 -7.528e-10 1.77526e-10 9.31863e-11 -4.3836e-10 9.15706e-11 4.55296e-11 -7.73091 5.47488 -0.417314 -4.38355e-10 9.15679e-11 4.55137e-11 -2.90554 0.965183 -0.102902 -4.38366e-10 9.15688e-11 4.55121e-11 -10.2786 0.731801 -0.0259123 -4.38355e-10 9.15686e-11 4.5501e-11 -2.22167 -0.733487 0.20892 -2.03217e-16 0.0 -3.88251e-19 1.38506 -44.0328 -4.09488 -0.536339 49.2434 1.2175 -24.0911 -35.2629 -33.2653 2.03217e-16 0.0 3.88251e-19 171.686 -76.3118 165.047 4.47884 78.3312 -4.41458 0.676162 -26.3631 1.29844
